<?xml version="1.0" encoding="utf-8"?>
<!-- Generator: Adobe Illustrator 16.2.0, SVG Export Plug-In . SVG Version: 6.00 Build 0)  -->
<!DOCTYPE svg PUBLIC "-//W3C//DTD SVG 1.1//EN" "http://www.w3.org/Graphics/SVG/1.1/DTD/svg11.dtd">
<svg version="1.1" id="Layer_1" xmlns="http://www.w3.org/2000/svg" xmlns:xlink="http://www.w3.org/1999/xlink" x="0px" y="0px"
	 width="59px" height="77px" viewBox="0 0 59 77" enable-background="new 0 0 59 77" xml:space="preserve">
<path d="M30.286,50.831c-0.086-0.002-0.167-0.016-0.251-0.021C30.119,50.814,30.2,50.829,30.286,50.831z M31.866,50.713
	c-0.062,0.01-0.121,0.013-0.183,0.021C31.745,50.726,31.805,50.722,31.866,50.713C31.866,50.713,31.866,50.713,31.866,50.713z
	 M27.779,50.047c0.129,0.092,0.257,0.191,0.393,0.266C28.036,50.238,27.909,50.139,27.779,50.047z M27.107,49.449
	c0.145,0.16,0.29,0.316,0.445,0.444C27.397,49.765,27.252,49.609,27.107,49.449z M27.57,52.233c-0.05-0.052-0.098-0.096-0.148-0.152
	C27.472,52.136,27.52,52.181,27.57,52.233z M26.982,49.325c-0.181-0.216-0.354-0.459-0.517-0.733
	C26.629,48.865,26.801,49.108,26.982,49.325z M28.858,53.164c1.243,0.451,2.268-0.539,3.026-2.454
	c-0.006,0.001-0.012,0.001-0.018,0.002C31.117,52.626,30.097,53.612,28.858,53.164z M51.783,43.664
	c-2.532-3.547-1.478-7.526-1.412-11.375C50.305,36.137,49.25,40.116,51.783,43.664z M34.41,48.64
	c-0.069,0.027-0.139,0.068-0.208,0.101C34.271,48.708,34.341,48.667,34.41,48.64z M50.373,32.24c0.008-0.553-0.004-1.104-0.051-1.65
	C50.368,31.136,50.381,31.687,50.373,32.24z M34.603,48.581c0.079-0.025,0.159-0.056,0.238-0.072
	C34.762,48.525,34.682,48.556,34.603,48.581z M33.403,49.255c0.039-0.031,0.078-0.07,0.117-0.099
	C33.481,49.186,33.442,49.224,33.403,49.255z M33.97,48.854c-0.059,0.034-0.12,0.081-0.179,0.12
	C33.85,48.936,33.911,48.889,33.97,48.854z M38.438,53.744c0.218,0.318,0.422,0.667,0.612,1.048
	C38.859,54.411,38.655,54.062,38.438,53.744z M34.978,48.493c0.096-0.014,0.191-0.031,0.286-0.032
	C35.169,48.462,35.073,48.479,34.978,48.493z M35.35,48.467c0.11,0.002,0.22,0.007,0.328,0.026
	C35.569,48.474,35.459,48.47,35.35,48.467z M50.405,44.9c-0.003,0.029-0.015,0.053-0.016,0.083
	C50.39,44.953,50.401,44.929,50.405,44.9z M50.414,45.295c0.003,0.02,0,0.037,0.004,0.057
	C50.415,45.332,50.417,45.315,50.414,45.295z M29.542,50.766c-0.1-0.016-0.195-0.047-0.293-0.069
	C29.347,50.719,29.442,50.75,29.542,50.766z M27.885,52.541c-0.03-0.026-0.059-0.046-0.088-0.074
	C27.827,52.495,27.855,52.515,27.885,52.541z M28.5,50.454c0.112,0.048,0.22,0.106,0.335,0.144
	C28.721,50.561,28.612,50.502,28.5,50.454z M51.796,43.683c0-0.003,0.001-0.006,0.002-0.009c0,0,0-0.001,0-0.001
	c0,0.002,0,0.004-0.001,0.007c-0.001,0-0.002,0.001-0.003,0.001c0.004,0.005,0.007,0.011,0.011,0.017
	C51.804,43.696,51.796,43.687,51.796,43.683z M52.292,40.754c0.068-0.32,0.146-0.637,0.239-0.949
	C52.438,40.117,52.36,40.434,52.292,40.754z M51.797,43.671C51.797,43.671,51.797,43.671,51.797,43.671
	c-0.301-1.018-0.364-2.018-0.272-3.031C51.433,41.653,51.496,42.652,51.797,43.671z M30.842,50.814
	c0.074-0.004,0.146-0.001,0.221-0.007C30.988,50.813,30.917,50.811,30.842,50.814z M33.061,49.546
	c-0.017,0.016-0.035,0.037-0.052,0.054C33.026,49.583,33.043,49.562,33.061,49.546z M32.578,50.043
	c0.004-0.005,0.008-0.011,0.013-0.016C32.587,50.032,32.582,50.038,32.578,50.043z M31.936,50.585L31.936,50.585l0.101,0.105
	C32.037,50.69,31.943,50.593,31.936,50.585z M37.507,52.66c-0.173-0.167-0.344-0.339-0.528-0.482
	C37.163,52.321,37.334,52.492,37.507,52.66z M28.162,52.775c0.04,0.03,0.078,0.05,0.117,0.077
	C28.24,52.825,28.202,52.805,28.162,52.775z M28.516,53.006c0.08,0.045,0.158,0.076,0.237,0.109
	C28.674,53.083,28.596,53.051,28.516,53.006z M32.037,50.69c0.025-0.032,0.049-0.058,0.074-0.089h0
	C32.085,50.632,32.062,50.658,32.037,50.69z M36.137,51.627c0.221,0.122,0.429,0.269,0.637,0.417
	C36.566,51.896,36.358,51.749,36.137,51.627z M32.11,50.601c1.491,0.099,2.833,0.382,3.994,1.011
	c-1.159-0.628-2.499-0.913-3.99-1.016C32.113,50.598,32.112,50.599,32.11,50.601z M38.77,51.393
	c-0.98-1.682-1.996-2.707-3.089-2.899C36.774,48.687,37.79,49.711,38.77,51.393z M37.746,52.878
	c0.188,0.201,0.362,0.434,0.534,0.668C38.108,53.312,37.934,53.079,37.746,52.878z M0.15,46.736
	c-0.102-2.488-0.234-4.99-0.079-7.469c0.142-2.266-0.433-5.427,1.804-6.373c2.332-0.986,3.349,2.092,4.704,3.637
	c2.011,2.292,2.454,0.052,3.031-1.072c2.351-4.586,4.396-9.338,6.913-13.827c2.785-4.967,8.748-5.716,12.434-1.356
	c2.975,3.519,6.087,3.258,9.828,2.09c8.697-2.717,10.734-1.086,11.537,8.224c0.047,0.546,0.06,1.097,0.051,1.65
	c0,0.016-0.001,0.033-0.001,0.049c-0.066,3.848-1.121,7.827,1.412,11.375c0.004,0.005,0.006,0.011,0.01,0.016
	c-0.748,0.247-1.309,0.595-1.388,1.22c-0.003,0.029-0.015,0.053-0.016,0.083c-0.005,0.096,0.007,0.202,0.025,0.312
	c0.003,0.02,0,0.037,0.004,0.057c0.027,0.132,0.07,0.274,0.132,0.428c0.197,0.056,0.373,0.171,0.489,0.128
	c2.117-0.787,2.748-5.206,5.824-3.071c2.656,1.843,2.097,5.348,1.125,7.881c-1.934,5.041-2.966,10.999-10.183,11.953
	c-1.381,0.183-2.577,2.866-3.586,4.559c-3.332,5.586-8.304,8.281-14.639,9.162C18.661,77.91,9.766,71.329,8.555,60.306
	c-0.466-4.24-1.459-7.795-5.852-9.562C1.056,50.081,0.223,48.526,0.15,46.736z M41.032,59.289C32.457,58.708,24.729,58.184,17,57.66
	C23.082,64.791,32.558,65.713,41.032,59.289z M38.311,33.558c3.515,1.063,6.142,3.61,9.472,5.146
	c-2.056-3.45-3.699-7.237-7.936-8.458c-1.325-0.382-2.874-0.458-3.477,0.997C35.749,32.745,37.306,33.253,38.311,33.558z
	 M41.985,44.026c1.264-0.902,4.239,1.771,4.763-1.837c0.152-1.05-8.29-6.958-9.418-6.803c-1.332,0.184-1.914,1.144-2.297,2.304
	C33.652,41.871,35.853,43.989,41.985,44.026z M28.172,50.312c-0.136-0.074-0.263-0.173-0.393-0.266
	c-0.075-0.054-0.154-0.094-0.227-0.154c-0.155-0.128-0.301-0.284-0.445-0.444c-0.041-0.044-0.085-0.077-0.125-0.125
	c-0.181-0.216-0.354-0.459-0.517-0.733c-0.92-1.544-2.086-2.038-3.478-0.33c-2.052,2.519-4.814,4.248-8.18,6.501
	c3.828,0.692,5.369-1.444,7.021-3.096c1.813-1.813,3.28-2.562,5.208-0.052c0.13,0.169,0.258,0.324,0.385,0.466
	c0.05,0.056,0.098,0.1,0.148,0.152c0.076,0.08,0.152,0.164,0.227,0.234c0.03,0.028,0.059,0.048,0.088,0.074
	c0.093,0.083,0.186,0.166,0.277,0.234c0.04,0.03,0.078,0.05,0.117,0.077c0.079,0.054,0.159,0.111,0.237,0.155
	c0.08,0.045,0.158,0.076,0.237,0.109c0.035,0.015,0.071,0.036,0.105,0.048c1.243,0.451,2.268-0.539,3.026-2.454
	c0.051-0.007,0.101-0.011,0.152-0.02c0.025-0.032,0.049-0.058,0.074-0.089c1.491,0.099,2.833,0.382,3.994,1.011
	c0.01,0.006,0.022,0.009,0.033,0.015c0.221,0.122,0.429,0.269,0.637,0.417c0.066,0.048,0.139,0.083,0.204,0.134
	c0.185,0.143,0.355,0.314,0.528,0.481c0.078,0.076,0.164,0.137,0.239,0.219c0.188,0.201,0.362,0.433,0.534,0.668
	c0.051,0.069,0.108,0.124,0.157,0.196c0.218,0.318,0.422,0.665,0.612,1.046c0.897,1.796,2.433,4.055,5.962,1.65
	c-3.555-0.592-4.944-3.064-6.242-5.292C37.79,49.464,36.774,48,35.681,48c-0.001,0-0.002,0-0.003,0
	c-0.108,0-0.218,0.223-0.328,0.221c-0.029,0-0.058,0.125-0.086,0.126c-0.094,0.001-0.19,0.075-0.286,0.089
	c-0.046,0.007-0.091,0.034-0.137,0.044c-0.079,0.017-0.159,0.062-0.238,0.087c-0.064,0.02-0.128,0.04-0.193,0.065
	c-0.069,0.027-0.139,0.072-0.208,0.105c-0.077,0.038-0.154,0.07-0.232,0.115c-0.059,0.034-0.12,0.082-0.179,0.121
	c-0.09,0.059-0.179,0.113-0.27,0.182c-0.039,0.029-0.079,0.068-0.117,0.1c-0.114,0.092-0.227,0.183-0.343,0.291
	c-0.017,0.016-0.035,0.037-0.052,0.054c-0.138,0.132-0.277,0.271-0.417,0.427c-0.004,0.005-0.009,0.011-0.013,0.016
	c-0.153,0.17-0.308,0.354-0.464,0.553c-0.062-0.004-0.122-0.013-0.185-0.017c0,0,0.006,0.006,0.006,0.006v0l-0.013-0.013
	c-0.019,0.049-0.039,0.093-0.057,0.14c-0.062,0.01-0.121,0.014-0.183,0.022c-0.209,0.029-0.417,0.058-0.62,0.073
	c-0.075,0.006-0.147,0.003-0.221,0.007c-0.188,0.01-0.375,0.021-0.557,0.016c-0.086-0.002-0.167-0.016-0.251-0.021
	c-0.165-0.011-0.332-0.018-0.492-0.043c-0.1-0.016-0.195-0.047-0.293-0.069c-0.138-0.031-0.279-0.055-0.413-0.099
	c-0.115-0.038-0.224-0.096-0.335-0.144C28.391,50.407,28.278,50.37,28.172,50.312z M25.27,34.113
	c-2.68-2.067-4.224,0.79-6.048,1.822c-1.924,1.088-5.542,1.739-4.985,4.099c0.648,2.748,4.323,1.078,6.285,1.851
	c2.733,0.093,5.097-0.127,5.691-3.107C26.534,37.169,26.771,35.271,25.27,34.113z M13.315,35.168
	c3.385-1.221,6.182-3.64,9.797-4.227c1.085-0.176,2.602-0.566,2.361-2.029c-0.285-1.731-2.021-1.637-3.255-1.441
	C17.738,28.182,15.451,31.568,13.315,35.168z M51.804,43.696c-0.004-0.005-0.007-0.011-0.011-0.017l0,0
	C51.797,43.686,51.8,43.691,51.804,43.696z M32.11,50.601c0.001-0.002,0.003-0.003,0.004-0.005h0
	C32.113,50.598,32.111,50.599,32.11,50.601L32.11,50.601z M51.796,43.683c0,0.004,0.008,0.014,0.008,0.014
	c-0.002-0.008-0.004-0.015-0.006-0.023C51.797,43.676,51.796,43.68,51.796,43.683z M51.797,43.671
	c0.178-0.968,0.292-1.956,0.495-2.917c0.068-0.32,0.146-0.637,0.239-0.949c2.52-8.416,2.93-17.044,2.233-25.696
	c-0.67-8.322-4.215-11.975-12.446-12.91c-6.261-0.711-12.583-1.111-18.883-1.196C15.217-0.109,11.499,2.837,8.295,10.432
	C4.95,18.366,6.522,26.249,7.837,35.01c2.351-5.204,4.155-9.807,6.459-14.146c2.906-5.473,9.546-7.719,13.887-4.093
	c3.804,3.177,7.172,2.884,11.444,2.033c8.342-1.664,11.836,1.154,12.69,9.565c0.353,3.481,0.338,7-0.478,10.424
	c-0.149,0.625-0.26,1.238-0.315,1.846C51.433,41.653,51.496,42.652,51.797,43.671z"/>
</svg>
