<?xml version="1.0" standalone="no"?>
<!DOCTYPE svg PUBLIC "-//W3C//DTD SVG 1.1//EN" "http://www.w3.org/Graphics/SVG/1.1/DTD/svg11.dtd" >
<svg xmlns="http://www.w3.org/2000/svg">
<metadata></metadata>
<defs>
<font id="SSSocialCircle" >
<font-face font-family="SS Social" units-per-em="864" ascent="918" descent="-270" />
<missing-glyph d="M0 864h864v-864h-864v864zM680 756h-496l248 -248zM108 680v-496l248 248zM184 108h496l-248 248zM756 184v496l-248 -248z" />
<glyph  horiz-adv-x="864" d="M0 864h864v-864h-864v864zM680 756h-496l248 -248zM108 680v-496l248 248zM184 108h496l-248 248zM756 184v496l-248 -248z" />
<glyph unicode="&#x2709;" horiz-adv-x="864" d="M432 864q178 0 305 -127t127 -305q0 -179 -126.5 -305.5t-305.5 -126.5t-305.5 126.5t-126.5 305.5t126.5 305.5t305.5 126.5zM702 268v258l-270 -202l-270 202v-258q0 -14 10 -24t24 -10h472q14 0 24 10t10 24zM432 394l270 202q0 14 -10 24t-24 10h-472q-14 0 -24 -10
t-10 -24z" />
<glyph unicode="&#xe310;" horiz-adv-x="864" d="M432 864q178 0 305 -127t127 -305q0 -179 -126.5 -305.5t-305.5 -126.5t-305.5 126.5t-126.5 305.5t126.5 305.5t305.5 126.5zM288 216q30 0 51 21t21 51t-21 51t-51 21t-51 -21t-21 -51t21 -51t51 -21zM450 216h90q0 134 -95 229t-229 95v-90q97 0 165.5 -68.5
t68.5 -165.5zM612 216h90q0 99 -38.5 189t-103.5 155t-155 103.5t-189 38.5v-90q164 0 280 -116t116 -280z" />
<glyph unicode="&#xf610;" horiz-adv-x="864" d="M432 864q178 0 305 -127t127 -305q0 -179 -126.5 -305.5t-305.5 -126.5t-305.5 126.5t-126.5 305.5t126.5 305.5t305.5 126.5zM468 503v78q0 25 8.5 37t35.5 12h59l5 102q-30 6 -82 6q-75 0 -113.5 -39t-38.5 -97v-98h-72v-108h72v-270h126v270h101l7 107h-108z" />
<glyph unicode="&#xf611;" horiz-adv-x="864" d="M432 864q179 0 305.5 -126.5t126.5 -305.5t-126.5 -305.5t-305.5 -126.5t-305.5 126.5t-126.5 305.5t126.5 305.5t305.5 126.5zM695 527q33 23 61 63q-36 -15 -71 -19q39 22 53 68q-37 -21 -77 -30q-36 39 -89 39q-51 0 -86.5 -36t-35.5 -87q0 -15 3 -28q-155 8 -254 129
q-16 -30 -16 -62q0 -66 54 -102q-28 0 -55 15v-1q0 -44 28 -78t70 -43q-13 -4 -32 -4q-9 0 -23 2q11 -37 42.5 -59.5t71.5 -23.5q-71 -56 -152 -56q-11 0 -29 2q83 -54 188 -54q81 0 149 31.5t110.5 82.5t66 112t23.5 123v16z" />
<glyph unicode="&#xf612;" horiz-adv-x="864" d="M432 864q179 0 305.5 -126.5t126.5 -305.5t-126.5 -305.5t-305.5 -126.5t-305.5 126.5t-126.5 305.5t126.5 305.5t305.5 126.5zM306 216v306h-108v-306h108zM252 576q32 0 52 18t20 45q-1 28 -20.5 45.5t-51.5 17.5t-52 -18t-20 -45t19.5 -45t51.5 -18h1zM702 216v162
q0 74 -34 118t-92 44q-32 0 -55.5 -17.5t-34.5 -47.5l-4 47h-107l3 -72v-234h108v162q0 33 14 52.5t39 19.5q55 0 55 -72v-162h108z" />
<glyph unicode="&#xf613;" horiz-adv-x="864" d="M182 215h42q-33 35 -33 68q0 22 12 46h-22q-67 0 -115.5 35t-64.5 91q-1 -8 -1 -23q0 -129 71 -238q53 21 111 21zM82 508q8 -62 47.5 -107.5t86.5 -46.5q47 -2 75 41.5t20 105.5t-47.5 106t-87.5 46q-47 2 -74.5 -40.5t-19.5 -104.5zM370 61q0 13 -3 25q-2 9 -5.5 16.5
t-10 15t-11 12.5t-15 13t-16 11.5t-20 13.5t-20.5 14q-32 10 -61 10q-61 1 -114 -30q103 -129 265 -156q11 23 11 55zM432 864q179 0 305.5 -126.5t126.5 -305.5t-126.5 -305.5t-305.5 -126.5h-17q19 36 19 71q0 54 -19.5 89.5t-67.5 69.5q-22 16 -43 39t-21 38q0 20 9 33.5
t38 36.5q69 54 69 129q0 49 -20.5 88.5t-58.5 53.5h78l55 40h-246q-97 0 -165 -70q53 111 158 178.5t232 67.5zM648 540h108v54h-108v108h-54v-108h-108v-54h108v-108h54v108z" />
<glyph unicode="&#xf620;" horiz-adv-x="864" d="M432 864q179 0 305.5 -126.5t126.5 -305.5t-126.5 -305.5t-305.5 -126.5t-305.5 126.5t-126.5 305.5t126.5 305.5t305.5 126.5zM612 162v93q-51 -15 -90 -15q-47 0 -59.5 16.5t-12.5 67.5v144h144v126h-144v144h-90q-9 -81 -42.5 -115t-101.5 -57v-91h91v-187
q0 -81 38 -121.5t123 -40.5q40 0 76 9t52 18z" />
<glyph unicode="&#xf621;" horiz-adv-x="864" d="M36 606l205 -562q-109 54 -175 158t-66 230q0 89 36 174zM574 24q-68 -24 -142 -24q-62 0 -122 17l127 378zM686 573q35 -61 35 -119q0 -34 -32 -139l-44 -144l-156 464l50 4q11 1 14.5 10.5t-1.5 17.5t-16 8q-70 -6 -115 -6l-114 6q-11 0 -16 -8.5t-1.5 -17.5t14.5 -10
q22 -3 46 -4l67 -184l-95 -284l-157 468l50 4q11 1 14.5 10.5t-1.5 17.5t-16 8q-70 -6 -115 -6q-17 0 -26 1q60 90 155 142t206 52q167 0 290 -112h-6q-31 0 -52 -23.5t-21 -53.5q0 -7 1 -13.5t2.5 -12t4.5 -13.5t5 -12t7 -12.5t7 -12t8 -13.5t8 -13zM864 432
q0 -118 -58.5 -217.5t-156.5 -156.5l132 382q33 82 33 155q0 25 -3 44q53 -95 53 -207z" />
<glyph unicode="&#xf622;" horiz-adv-x="864" d="M432 864q179 0 305.5 -126.5t126.5 -305.5t-126.5 -305.5t-305.5 -126.5t-305.5 126.5t-126.5 305.5t126.5 305.5t305.5 126.5zM684 342v108q0 15 -10.5 25.5t-25.5 10.5h-27q-11 0 -19 10.5t-8 25.5q0 67 -47.5 114.5t-114.5 47.5h-90q-67 0 -114.5 -47.5t-47.5 -114.5
v-180q0 -68 47 -115t115 -47h180q67 0 114.5 47.5t47.5 114.5zM522 378q15 0 25.5 -10.5t10.5 -25.5t-10.5 -25.5t-25.5 -10.5h-180q-15 0 -25.5 10.5t-10.5 25.5t10.5 25.5t25.5 10.5h180zM342 486q-15 0 -25.5 10.5t-10.5 25.5t10.5 25.5t25.5 10.5h90q15 0 25.5 -10.5
t10.5 -25.5t-10.5 -25.5t-25.5 -10.5h-90z" />
<glyph unicode="&#xf623;" horiz-adv-x="864" d="M288 396v90q0 64 44 113t107 49q65 0 110 -53.5t45 -144.5q0 -95 -42.5 -149.5t-119.5 -54.5q-61 0 -102.5 46.5t-41.5 103.5zM864 432q0 -179 -126.5 -305.5t-305.5 -126.5q-74 0 -144 25v239h7q57 -84 155 -84q111 0 172.5 78t61.5 192q0 111 -59.5 187t-156.5 76
q-123 0 -183 -101h-7l-8 90h-78l6 -144v-489q-91 59 -144.5 155t-53.5 208q0 179 126.5 305.5t305.5 126.5t305.5 -126.5t126.5 -305.5z" />
<glyph unicode="&#xf630;" horiz-adv-x="864" d="M432 864q179 0 305.5 -126.5t126.5 -305.5t-126.5 -305.5t-305.5 -126.5t-305.5 126.5t-126.5 305.5t126.5 305.5t305.5 126.5zM432 234q202 0 236 25t34 173t-34 173t-236 25t-236 -25t-34 -173t34 -173t236 -25zM360 324v216l180 -108z" />
<glyph unicode="&#xf631;" horiz-adv-x="864" d="M432 864q179 0 305.5 -126.5t126.5 -305.5t-126.5 -305.5t-305.5 -126.5t-305.5 126.5t-126.5 305.5t126.5 305.5t305.5 126.5zM396 144q39 0 112 68t133.5 167t60.5 172q0 44 -24 70.5t-61 26.5q-47 0 -94.5 -30.5t-64.5 -95.5q37 16 59.5 1.5t22.5 -43.5
q0 -35 -41 -95.5t-61 -60.5q-28 0 -53 156q-1 7 -3.5 28t-4.5 32.5t-6 30.5t-10 30.5t-14 23.5t-20 17.5t-27 5.5q-32 0 -76.5 -34.5t-73.5 -69.5l-28 -34l22 -24q24 18 38.5 22.5t21.5 -1t12 -21.5l72 -234q32 -108 108 -108z" />
<glyph unicode="&#xf640;" horiz-adv-x="864" d="M432 864q179 0 305.5 -126.5t126.5 -305.5t-126.5 -305.5t-305.5 -126.5t-305.5 126.5t-126.5 305.5t126.5 305.5t305.5 126.5zM252 288q59 0 101.5 42t42.5 102q0 59 -42.5 101.5t-101.5 42.5q-60 0 -102 -42.5t-42 -101.5q0 -60 42 -102t102 -42zM612 288
q59 0 101.5 42t42.5 102q0 59 -42.5 101.5t-101.5 42.5q-60 0 -102 -42.5t-42 -101.5q0 -60 42 -102t102 -42z" />
<glyph unicode="&#xf641;" horiz-adv-x="864" d="M432 594q67 0 114.5 -47.5t47.5 -114.5t-47.5 -114.5t-114.5 -47.5q-68 0 -115 47t-47 115q0 67 47.5 114.5t114.5 47.5zM833 594h-232q-70 72 -169 72t-169 -72h-232q49 120 158 195t243 75t242.5 -75t158.5 -195zM864 432q0 -179 -126.5 -305.5t-305.5 -126.5
t-305.5 126.5t-126.5 305.5q0 46 9 90h207q-18 -42 -18 -90q0 -97 68.5 -165.5t165.5 -68.5t165.5 68.5t68.5 165.5q0 48 -18 90h207q9 -44 9 -90z" />
<glyph unicode="&#xf650;" horiz-adv-x="864" d="M864 432q0 -179 -126.5 -305.5t-305.5 -126.5q-64 0 -123 18q32 50 44 92l30 119q12 -22 42 -38t64 -16q103 0 168 84t65 212q0 100 -77 174t-196 74q-74 0 -134.5 -24.5t-97.5 -64.5t-57 -87t-20 -94q0 -59 22.5 -103.5t65.5 -61.5q17 -7 22 11q4 14 9 34q3 12 -7 24
q-28 35 -28 85q0 85 59 146t154 61q85 0 132 -46t47 -120q0 -95 -38.5 -162t-98.5 -67q-34 0 -55 24.5t-13 58.5q5 20 15 53t16.5 58t6.5 42q0 28 -15 46.5t-43 18.5q-35 0 -59 -32t-24 -80q0 -18 3.5 -35t6.5 -25l4 -8q-48 -200 -56 -236q-11 -43 -7 -99
q-116 51 -187.5 158t-71.5 238q0 179 126.5 305.5t305.5 126.5t305.5 -126.5t126.5 -305.5z" />
<glyph unicode="&#xf660;" horiz-adv-x="864" d="M421 572q-168 -50 -412 -54q20 101 84.5 182t157.5 124q98 -120 170 -252zM114 139q-114 124 -114 293v20q269 4 451 61q17 -34 38 -83q-22 -6 -33 -10q-206 -73 -342 -281zM602 35q-81 -35 -170 -35q-151 0 -268 93q138 217 349 276q58 -153 89 -334zM859 367
q-13 -91 -63 -168t-126 -127q-31 169 -84 312q129 19 273 -17zM492 596q-74 137 -168 254q54 14 108 14q166 0 288 -111q-87 -101 -228 -157zM864 434q-163 37 -302 13q-8 21 -40 91q149 60 244 168q96 -117 98 -272z" />
<glyph unicode="&#xf661;" horiz-adv-x="864" d="M608 469q25 0 42 -16t17 -39h-119q2 24 18 39.5t42 15.5zM608 469q25 0 42 -16t17 -39h-119q2 24 18 39.5t42 15.5zM432 864q179 0 305.5 -126.5t126.5 -305.5t-126.5 -305.5t-305.5 -126.5t-305.5 126.5t-126.5 305.5t126.5 305.5t305.5 126.5zM530 612v-36h159v36h-159
zM309 252q72 0 104 31.5t32 79.5q0 32 -14.5 53.5t-28.5 27.5l-14 5q45 23 45 75q0 45 -30.5 70t-81.5 25h-177v-367h165zM547 368h191v17q0 67 -34 104t-96 37q-58 0 -94.5 -36t-36.5 -105q0 -66 36.5 -102t96.5 -36q47 0 81.5 24t42.5 62h-70q-1 -3 -4.5 -8t-16.5 -13.5
t-31 -8.5q-28 0 -46.5 17t-18.5 48zM608 469q25 0 42 -16t17 -39h-119q2 24 18 39.5t42 15.5zM307 413q60 0 60 -45q0 -52 -61 -52h-78v97h79zM360 515q0 -41 -54 -41h-78v81h69q33 0 48 -8.5t15 -31.5z" />
<glyph unicode="&#xf670;" horiz-adv-x="864" d="M432 864q179 0 305.5 -126.5t126.5 -305.5t-126.5 -305.5t-305.5 -126.5t-305.5 126.5t-126.5 305.5t126.5 305.5t305.5 126.5zM594 648v92q-27 -23 -105 -29q-34 22 -79 22q-61 0 -103 -41.5t-42 -106.5q0 -88 70 -128q-17 -14 -25 -31.5t-3.5 -40t24.5 -43.5
q-36 -16 -57.5 -44.5t-21.5 -62.5q0 -54 50 -90t121 -36q72 0 121.5 35.5t49.5 90.5q0 52 -48 88t-118 38q-22 16 -25 33.5t12 43.5q60 2 99.5 42.5t39.5 104.5q0 35 -12 63h52zM342 234q0 19 22.5 33t58.5 14t58.5 -14t22.5 -33q0 -20 -22.5 -33.5t-58.5 -13.5t-58.5 13.5
t-22.5 33.5zM410 661q23 0 37.5 -19.5t14.5 -52.5q0 -34 -15 -53.5t-37 -19.5q-23 0 -38 20t-15 53t15 52.5t38 19.5z" />
<glyph unicode="&#xf671;" horiz-adv-x="864" d="M432 864q178 0 305 -127t127 -305q0 -149 -91.5 -266t-232.5 -153v113q0 78 -45 113q91 14 149 65t58 128q0 68 -50 124q18 83 -4 128q-55 -5 -125 -48q-48 12 -91 12t-91 -12q-70 43 -125 48q-23 -48 -4 -128q-50 -56 -50 -124q0 -77 58 -128t149 -65q-23 -17 -35 -49
q-18 0 -37 3.5t-34.5 9.5t-30 13.5t-26 15t-19.5 14t-13 10.5l-4 4q-7 7 -14 2q-8 -5 -6 -14q19 -37 32 -54q52 -67 142 -94v-87q-141 36 -232.5 153t-91.5 266q0 179 126.5 305.5t305.5 126.5z" />
<glyph unicode="&#xf680;" horiz-adv-x="864" d="M432 864q179 0 305.5 -126.5t126.5 -305.5t-126.5 -305.5t-305.5 -126.5t-305.5 126.5t-126.5 305.5t126.5 305.5t305.5 126.5zM679 510q18 81 -25.5 127.5t-105.5 46.5h-242l-108 -504h140l35 162h100q78 0 134 45t72 123zM494 576q27 0 41.5 -20.5t7.5 -49.5
q-7 -30 -30.5 -52t-54.5 -22h-66l32 144h70z" />
<glyph unicode="&#xf690;" horiz-adv-x="864" d="M864 432q0 -179 -126.5 -305.5t-305.5 -126.5t-305.5 126.5t-126.5 305.5q0 13 2 39q8 -63 56.5 -105t112.5 -42q71 0 121 50t50 121t-50 121t-121 50q-89 0 -140 -73q49 121 157.5 196t243.5 75q101 0 190 -44t150 -121l-358 -429l-45 83q-38 -51 -96 -79l123 -148
l449 431q19 -62 19 -125z" />
<glyph unicode="&#xf6a0;" horiz-adv-x="864" d="M432 864q179 0 305.5 -126.5t126.5 -305.5t-126.5 -305.5t-305.5 -126.5t-305.5 126.5t-126.5 305.5t126.5 305.5t305.5 126.5zM567 137q66 0 113 47t47 113q0 51 -28 90q3 23 3 45q0 112 -79 191t-191 79q-22 0 -45 -3q-39 28 -90 28q-66 0 -113 -47t-47 -113
q0 -51 28 -91q-3 -21 -3 -44q0 -112 79 -191t191 -79q23 0 44 3q40 -28 91 -28zM585 366q0 77 -120 102l-40 10q-18 4 -27 6.5t-16.5 9.5t-7.5 18q0 29 55 29q33 0 58 -22t41 -22q18 0 29 12.5t11 29.5q0 32 -44.5 52.5t-101.5 20.5t-100 -26.5t-43 -80.5q0 -44 25.5 -66.5
t73.5 -34.5l56 -14q22 -5 30.5 -7.5t16.5 -10t8 -18.5q0 -15 -15.5 -25t-40.5 -10q-24 0 -42 9t-27 20.5t-21 20.5t-26 9q-38 0 -38 -40q0 -35 46.5 -60.5t111.5 -25.5q60 0 104 31t44 83z" />
<glyph unicode="&#xf6b0;" horiz-adv-x="864" d="M432 864q178 0 305 -127t127 -305q0 -179 -126.5 -305.5t-305.5 -126.5t-305.5 126.5t-126.5 305.5t126.5 305.5t305.5 126.5zM504 692q-36 10 -81 10q-115 0 -197 -79t-82 -191t82 -191t197 -79t197 79t82 191q0 9 -2 29q34 16 57 39t28.5 36t5.5 18q3 7 -3 15
q-5 7 -14 7q-30 0 -58 9t-44.5 18t-46.5 29q-40 26 -67 39v-212q0 -61 -49.5 -102.5t-112.5 -41.5q-44 0 -76 27t-32 72q0 47 43 91t110 44q33 0 63 -20v163z" />
<glyph unicode="&#xf6b1;" horiz-adv-x="864" d="M505 6q-10 63 -43 95.5t-82 32.5q-41 0 -72 -26.5t-45 -73.5q80 -34 169 -34q37 0 73 6zM432 864q178 0 305 -127t127 -305q0 -121 -62 -222.5t-164 -157.5q-24 94 -93.5 147t-164.5 53q-76 0 -138.5 -37.5t-97.5 -105.5q-67 61 -105.5 145t-38.5 178q0 179 126.5 305.5
t305.5 126.5zM639 281q6 9 3.5 19.5t-12.5 16.5q-169 104 -415 48q-11 -3 -16.5 -12.5t-3.5 -19.5t11.5 -16t20.5 -4q224 51 375 -41q23 -14 37 9zM691 397q8 11 4.5 24.5t-15.5 20.5q-99 61 -231 76.5t-249 -19.5q-13 -4 -19.5 -16t-2.5 -25t16 -20t26 -3
q102 31 220.5 17.5t204.5 -66.5q12 -8 25.5 -4.5t20.5 15.5zM696 519q14 -8 30 -4t24 18q9 14 4.5 30.5t-18.5 24.5q-76 45 -180.5 66.5t-203.5 17.5t-176 -27q-16 -5 -23.5 -19.5t-2.5 -30.5t19 -23.5t30 -2.5q67 20 155.5 23.5t182 -15.5t159.5 -58z" />
<glyph unicode="&#xf6b2;" horiz-adv-x="864" d="M432 864q178 0 305 -127t127 -305q0 -179 -126.5 -305.5t-305.5 -126.5t-305.5 126.5t-126.5 305.5t126.5 305.5t305.5 126.5zM594 252q162 0 162 103q0 41 -19.5 64.5t-47 31.5t-55 13t-47 16t-19.5 34q0 39 53 39q52 0 58 -44l74 9q-9 94 -128 94q-59 0 -95.5 -26
t-36.5 -80q0 -39 19.5 -61.5t46.5 -30.5t54.5 -13t47 -16.5t19.5 -33.5q0 -41 -77 -41q-61 0 -88 31.5t-47 97.5q-28 95 -66 134t-127 39q-74 0 -120.5 -45t-46.5 -141q0 -94 46 -134t116 -40q36 0 67 10t44 20l13 9l-24 65q-4 -5 -12 -12.5t-34 -20.5t-54 -13
q-34 0 -59 32.5t-25 89.5q0 56 24.5 88.5t66.5 32.5q13 0 24.5 -2t21 -7.5t16.5 -10.5t13.5 -16t10.5 -17.5t9.5 -21.5t8.5 -23t8.5 -26t8.5 -26q7 -21 10.5 -30t14 -31.5t23.5 -34.5t33 -26.5t49.5 -21.5t65.5 -7z" />
<glyph unicode="&#x1f44d;" horiz-adv-x="864" d="M432 864q178 0 305 -127t127 -305q0 -179 -126.5 -305.5t-305.5 -126.5t-305.5 126.5t-126.5 305.5t126.5 305.5t305.5 126.5zM684 400q0 27 -21 43q21 16 21 43q0 22 -16 38t-38 16h-115q-6 0 -9 5q-4 6 -1 10l2 6q2 6 4.5 15.5t4.5 21t4 25t2 25.5q0 36 -19 65
q-17 25 -40 25q-13 0 -22 -10t-9 -24q0 -45 -23 -85t-54 -63.5t-59.5 -37.5t-43.5 -14h-36v-252h72l107 -40q30 -14 64 -14h113q20 0 34 14t14 34q0 11 -5 21q18 5 29.5 19.5t11.5 33.5q0 16 -9 29q37 12 37 51z" />
<glyph   />
<glyph  horiz-adv-x="288"  />
<glyph  horiz-adv-x="864" d="M0 864h864v-864h-864v864zM680 756h-496l248 -248zM108 680v-496l248 248zM184 108h496l-248 248zM756 184v496l-248 -248z" />
<glyph unicode="&#xd;" horiz-adv-x="864" d="M0 864h864v-864h-864v864zM680 756h-496l248 -248zM108 680v-496l248 248zM184 108h496l-248 248zM756 184v496l-248 -248z" />
<glyph unicode=" " horiz-adv-x="216"  />
<glyph unicode="+" horiz-adv-x="584" d="M545 215h-217v-215h-72v215h-217v74h217v215h72v-215h217v-74z" />
<glyph unicode="-" horiz-adv-x="833"  />
<glyph unicode="A" horiz-adv-x="668" d="M653 0h-106l-70 209h-289l-75 -209h-99l269 719h112zM440 295l-106 318l-115 -318h221z" />
<glyph unicode="B" horiz-adv-x="668" d="M625 216q0 -97 -65 -156.5t-158 -59.5h-330v719h324q80 0 136 -48t58 -134q0 -49 -24.5 -91.5t-69.5 -58.5q57 -20 93 -65t36 -106zM494 516q0 59 -30.5 88.5t-106.5 30.5h-187v-221h189q68 0 100.5 29t34.5 73zM529 203q0 65 -35 97.5t-131 33.5h-193v-252h225
q65 0 98 36.5t36 84.5z" />
<glyph unicode="C" horiz-adv-x="723" d="M682 264q-14 -122 -96 -203t-211 -81q-90 0 -157.5 35.5t-104 94t-54 122.5t-17.5 133q0 96 35.5 178t112 137t181.5 58q43 0 87 -10.5t90.5 -34.5t81 -73.5t44.5 -117.5h-94q-15 71 -68 109.5t-127 38.5q-123 0 -181.5 -79.5t-60.5 -205.5q1 -56 14.5 -107.5t39 -95
t69 -69.5t99.5 -26q94 0 150.5 52t70.5 145h96z" />
<glyph unicode="D" horiz-adv-x="723" d="M673 385q0 -103 -32.5 -188.5t-99 -140.5t-156.5 -56h-305v719h301q48 0 96 -18.5t92 -55.5t73 -104.5t31 -155.5zM573 377q0 70 -19 126t-67 94t-120 38h-189v-553h201q88 0 141 84t53 211z" />
<glyph unicode="E" horiz-adv-x="668" d="M615 0h-531v719h525v-88h-427v-219h394v-86h-394v-240h433v-86z" />
<glyph unicode="F" horiz-adv-x="611" d="M582 631h-400v-219h353v-86h-353v-326h-98v719h498v-88z" />
<glyph unicode="G" horiz-adv-x="777" d="M703 0h-62l-24 96q-33 -48 -96 -79t-140 -33q-171 0 -252.5 104t-81.5 277q0 69 21.5 133t62 117t107 85.5t149.5 33.5q115 0 202 -62t102 -172h-93q-38 150 -215 150q-103 0 -170 -78.5t-67 -212.5q0 -143 65.5 -220.5t171.5 -77.5q85 0 150 52q45 36 61.5 77t18.5 110
h-224v82h314v-382z" />
<glyph unicode="H" horiz-adv-x="723" d="M647 0h-98v334h-375v-334h-98v719h98v-299h375v299h98v-719z" />
<glyph unicode="I" horiz-adv-x="277" d="M188 0h-98v719h98v-719z" />
<glyph unicode="J" horiz-adv-x="500" d="M428 193q0 -110 -57 -160.5t-150 -52.5q-56 0 -98 17t-64 44.5t-32.5 57t-10.5 61.5v70h91v-50q0 -117 108 -117q59 0 86 30t29 95v531h98v-526z" />
<glyph unicode="K" horiz-adv-x="668" d="M662 0h-125l-252 359l-113 -107v-252h-98v719h98v-350l349 350h133l-299 -291z" />
<glyph unicode="L" horiz-adv-x="557" d="M537 0h-463v719h98v-633h365v-86z" />
<glyph unicode="M" horiz-adv-x="832" d="M762 0h-96v604l-201 -604h-96l-205 602v-602h-92v719h139l207 -610l205 610h139v-719z" />
<glyph unicode="N" horiz-adv-x="723" d="M647 0h-110l-367 580v-580h-94v719h115l362 -582v582h94v-719z" />
<glyph unicode="O" horiz-adv-x="777" d="M739 359q0 -40 -5.5 -80t-27 -95t-57 -96.5t-102.5 -71.5t-156 -31q-87 0 -156 31.5t-110.5 85t-62.5 119t-21 138.5q0 103 36.5 185t117.5 135t196 55q76 0 137 -24t99.5 -62t64.5 -88.5t36.5 -100t10.5 -100.5zM640 359q0 129 -66 208t-183 81q-112 0 -181.5 -78.5
t-69.5 -210.5q0 -129 67.5 -207.5t183.5 -80.5q117 0 183 79t66 209z" />
<glyph unicode="P" horiz-adv-x="668" d="M621 516q0 -55 -19.5 -100.5t-69 -78.5t-124.5 -34h-226v-303h-98v719h324q91 0 151 -53t62 -150zM521 516q0 119 -142 119h-197v-250h193q144 0 146 131z" />
<glyph unicode="Q" horiz-adv-x="777" d="M738 359q0 -172 -104 -276l97 -76l-47 -59l-110 86q-74 -49 -185 -49q-87 0 -156 31.5t-110.5 85t-62.5 119t-21 138.5q0 103 36.5 185t117.5 135t196 55q76 0 137.5 -24t100 -62t64.5 -88.5t36.5 -100.5t10.5 -100zM638 359q0 129 -66 208t-183 81q-112 0 -181 -78.5
t-69 -210.5q0 -129 67 -207.5t183 -80.5q60 0 105 24l-75 56l50 61l92 -70q77 80 77 217z" />
<glyph unicode="R" horiz-adv-x="723" d="M673 0h-110q-12 28 -18 72.5t-7.5 91t-2.5 55.5q-13 86 -118 88h-244v-307h-98v719h344q92 0 158 -50t68 -148q0 -113 -105 -167q80 -24 89 -117q3 -27 6 -76t7 -80t12 -52q8 -19 19 -29zM546 512q0 54 -28.5 88t-90.5 35h-254v-244h246q55 0 91 33.5t36 87.5z" />
<glyph unicode="S" horiz-adv-x="668" d="M619 202q0 -106 -77.5 -161.5t-203.5 -55.5q-286 0 -289 252h90q0 -62 31 -101t72.5 -52.5t95.5 -15.5q79 0 133 28.5t54 92.5q0 63 -44.5 86t-193.5 55q-14 3 -21 5q-41 9 -72 21t-60 32.5t-45 52t-17 73.5q0 94 62 157t186 63q75 0 130 -19.5t82.5 -44.5t43.5 -60
t19.5 -56t4.5 -43v-5h-90q0 73 -52.5 108t-127.5 38q-44 0 -78 -9.5t-60 -39.5t-26 -78q0 -67 86 -87l205 -47q162 -37 162 -189z" />
<glyph unicode="T" horiz-adv-x="611" d="M598 631h-244v-631h-98v631h-242v88h584v-88z" />
<glyph unicode="U" horiz-adv-x="723" d="M645 236q0 -107 -73 -177.5t-217 -72.5q-137 0 -206 63.5t-71 182.5v487h98v-469q0 -83 46.5 -131t132.5 -48q87 0 138.5 46t53.5 131v471h98v-483z" />
<glyph unicode="V" horiz-adv-x="668" d="M646 719l-261 -719h-104l-261 719h113l203 -614l212 614h98z" />
<glyph unicode="W" horiz-adv-x="943" d="M928 719l-190 -719h-101l-164 596l-168 -596h-102l-187 719h105l133 -586l164 586h105l165 -586l132 586h108z" />
<glyph unicode="X" horiz-adv-x="668" d="M648 0h-121l-193 295l-199 -295h-117l257 369l-242 350h123l182 -276l183 276h116l-241 -352z" />
<glyph unicode="Y" horiz-adv-x="668" d="M652 719l-271 -432v-287h-96v287l-270 432h117l205 -346l207 346h108z" />
<glyph unicode="Z" horiz-adv-x="611" d="M588 0h-565v80l440 553h-408v86h533v-84l-443 -547h443v-88z" />
<glyph unicode="a" horiz-adv-x="557" d="M531 1v-1q-23 -10 -58 -10q-83 0 -84 78q-74 -81 -188 -84q-74 0 -120.5 43t-46.5 104q0 33 8.5 59t27 43.5t36.5 29.5t49 20.5t50.5 12.5t55 9.5t50.5 8.5q74 14 74 64q0 41 -30.5 65t-90.5 24q-54 0 -86.5 -25.5t-33.5 -78.5h-82q0 72 54 122t159 52q81 0 139.5 -39.5
t58.5 -114.5v-281q0 -29 11 -39.5t47 1.5v-63zM383 174v94q-19 -12 -66 -22t-87 -17.5t-72 -31.5t-32 -64q0 -38 25 -58t68 -20q55 0 109.5 33.5t54.5 85.5z" />
<glyph unicode="b" horiz-adv-x="557" d="M529 277q1 -41 -5.5 -81t-23.5 -79t-43 -68t-67 -47t-93 -18q-107 0 -154 80l-7 -64h-80v719h90v-262q58 77 160 80q96 0 157.5 -72.5t65.5 -187.5zM437 262q0 96 -39 146.5t-108 50.5q-52 0 -87 -33t-47.5 -75t-12.5 -88q0 -198 152 -202q68 0 105 55t37 146z" />
<glyph unicode="c" horiz-adv-x="500" d="M482 184q-12 -104 -76 -152t-146 -48q-98 0 -164.5 77t-66.5 200q0 134 67.5 205.5t167.5 71.5q83 0 145.5 -45t72.5 -145h-84q-6 52 -41.5 81t-89.5 29q-64 0 -104.5 -46.5t-40.5 -150.5q0 -82 41 -139.5t104 -57.5q109 0 129 120h86z" />
<glyph unicode="d" horiz-adv-x="557" d="M31 277q4 115 65.5 187.5t157.5 72.5q102 -3 160 -80v262h90v-719h-80v74q-23 -40 -67.5 -65t-93.5 -25q-52 0 -93 18t-67 47t-43 68t-23.5 79t-5.5 81zM123 262q0 -91 37 -146t105 -55q152 4 152 202q0 46 -12.5 88t-47.5 75t-87 33q-69 0 -108 -50.5t-39 -146.5z" />
<glyph unicode="e" horiz-adv-x="557" d="M485 232h-391q0 -74 44.5 -120.5t110.5 -46.5q63 0 101 33.5t38 65.5h90q-14 -84 -78 -131.5t-156 -47.5q-110 0 -175.5 75t-67.5 186q0 132 68 212.5t178 80.5q117 0 179.5 -84.5t58.5 -222.5zM393 303q0 70 -42.5 114t-102.5 44q-62 0 -106.5 -46.5t-46.5 -111.5h298z
" />
<glyph unicode="f" horiz-adv-x="277" d="M262 726v-73q-22 3 -37 3q-27 0 -38 -12.5t-11 -41.5v-79h86v-80h-86v-443h-90v443h-72v80h72v97q0 48 36 80t93 32q21 0 47 -6z" />
<glyph unicode="g" horiz-adv-x="597" d="M528 23q0 -127 -62.5 -189.5t-173.5 -62.5q-24 0 -47 3t-52.5 13.5t-51.5 27.5t-37.5 48.5t-16.5 72.5h88q0 -40 33 -62t78 -22q72 0 113 40.5t41 123.5v31q-58 -62 -160 -62q-87 0 -158 72t-74 191q0 135 68 212t177 77q47 0 86.5 -20.5t60.5 -53.5v64h88v-504zM440 260
q0 88 -40 138t-111 50q-58 0 -102.5 -47t-44.5 -133q0 -100 45 -152.5t106 -52.5q64 0 105 52.5t42 144.5z" />
<glyph unicode="h" horiz-adv-x="557" d="M492 0h-90v342q0 116 -103 116q-62 0 -104.5 -43.5t-42.5 -129.5v-285h-90v719h90v-266q27 42 71.5 62.5t91.5 22.5q34 0 63 -9t56 -29t42.5 -59t15.5 -93v-348z" />
<glyph unicode="i" horiz-adv-x="223" d="M154 617h-90v100h90v-100zM154 0h-90v523h90v-523z" />
<glyph unicode="j" horiz-adv-x="310" d="M243 -90q0 -52 -34 -85.5t-97 -33.5q-24 0 -45 4v76q27 -5 40 -5q25 0 35.5 14t10.5 50v593h90v-613zM243 617h-90v102h90v-102z" />
<glyph unicode="k" horiz-adv-x="500" d="M500 0h-112l-172 256l-64 -62v-194h-90v719h90v-418l223 222h113l-208 -201z" />
<glyph unicode="l" horiz-adv-x="223" d="M155 0h-90v719h90v-719z" />
<glyph unicode="m" horiz-adv-x="832" d="M771 0h-90v338q0 121 -97 121q-53 0 -86.5 -38t-35.5 -103v-318h-90v361q0 41 -20.5 69.5t-63.5 28.5q-55 0 -94 -41.5t-41 -132.5v-285h-90v523h83v-74q57 88 161 88q96 0 140 -84q23 35 64 59.5t96 24.5q26 0 52 -7.5t52.5 -25.5t43 -55t16.5 -88v-361z" />
<glyph unicode="n" horiz-adv-x="557" d="M492 0h-90v327q0 132 -103 132q-63 0 -105 -43.5t-42 -117.5v-298h-90v523h86v-76q17 29 62.5 59.5t104.5 30.5q80 0 128.5 -47t48.5 -142v-348z" />
<glyph unicode="o" horiz-adv-x="557" d="M525 262q0 -114 -66.5 -194.5t-178.5 -82.5q-112 0 -178 81t-66 196q0 116 65.5 196t178.5 80q112 0 178.5 -80t66.5 -196zM433 262q1 45 -14 88t-51 76t-88 34q-75 0 -113.5 -62t-38.5 -136q0 -85 37.5 -142.5t114.5 -57.5t113.5 57t39.5 143z" />
<glyph unicode="p" horiz-adv-x="557" d="M530 246q-4 -115 -65.5 -187.5t-157.5 -72.5q-102 3 -160 80v-273h-90v730h80v-74q23 40 67.5 65t93.5 25q52 0 93 -18t67 -47t43 -68t23.5 -79t5.5 -81zM438 261q0 91 -37 146t-105 55q-152 -4 -152 -202q0 -46 12.5 -88t47.5 -75t87 -33q69 0 108 50.5t39 146.5z" />
<glyph unicode="q" horiz-adv-x="557" d="M22 246q0 42 6.5 81t23.5 78.5t42.5 68.5t66.5 47t93 18q106 0 153 -80l8 64h80v-730h-90v273q-58 -77 -160 -80q-98 0 -159.5 70t-63.5 190zM114 261q0 -96 39 -146.5t108 -50.5q52 0 87 33t47.5 75t12.5 88q0 198 -152 202q-68 0 -105 -55t-37 -146z" />
<glyph unicode="r" horiz-adv-x="332" d="M296 443q-75 0 -121.5 -34.5t-46.5 -95.5v-313h-90v523h86v-89q48 101 172 101v-92z" />
<glyph unicode="s" horiz-adv-x="500" d="M467 158q0 -75 -55.5 -124.5t-151.5 -49.5q-98 0 -158.5 44t-66.5 140h86q0 -107 139 -107q49 0 84 21t35 61q0 21 -11 33.5t-49.5 27t-120.5 33.5q-29 7 -49.5 14.5t-45 22.5t-37.5 39.5t-13 57.5q0 79 55.5 123t142.5 44q48 0 85.5 -12.5t58 -30.5t33.5 -42.5
t17.5 -42.5t5.5 -37h-86q0 88 -123 88q-13 0 -25.5 -2t-32.5 -8t-33 -22.5t-14 -41.5q0 -32 30 -46.5t125 -37.5q15 -3 22 -5q71 -19 111 -49.5t42 -90.5z" />
<glyph unicode="t" horiz-adv-x="277" d="M262 62v-73q-25 -6 -47 -6q-57 0 -93 32t-36 80v348h-68v80h68v147h90v-147h86v-80h-86v-330q0 -29 11 -41.5t38 -12.5q15 0 37 3z" />
<glyph unicode="u" horiz-adv-x="557" d="M57 523h90v-327q0 -132 103 -132q63 0 105 43.5t42 117.5v298h90v-523h-86v76q-17 -29 -62.5 -59.5t-104.5 -30.5q-80 0 -128.5 47t-48.5 142v348z" />
<glyph unicode="v" horiz-adv-x="500" d="M480 523l-199 -523h-94l-191 523h101l143 -429l146 429h94z" />
<glyph unicode="w" horiz-adv-x="723" d="M709 523l-152 -523h-92l-104 404l-105 -404h-92l-150 523h95l100 -412l107 412h97l103 -412l105 412h88z" />
<glyph unicode="x" horiz-adv-x="500" d="M490 0h-113l-129 197l-127 -197h-111l185 270l-175 253h113l121 -185l121 185h107l-177 -255z" />
<glyph unicode="y" horiz-adv-x="500" d="M490 523q-81 -228 -153.5 -419.5t-88.5 -225.5q-32 -64 -72.5 -82.5t-114.5 -2.5v80q80 -30 111 28l35 83l-195 539h99l143 -427l141 427h95z" />
<glyph unicode="z" horiz-adv-x="500" d="M469 0h-438v68l315 381h-291v74h404v-72l-313 -379h323v-72z" />
</font>
</defs>
</svg>
