<?xml version="1.0" encoding="utf-8"?>
<!-- Generator: Adobe Illustrator 16.2.0, SVG Export Plug-In . SVG Version: 6.00 Build 0)  -->
<!DOCTYPE svg PUBLIC "-//W3C//DTD SVG 1.1//EN" "http://www.w3.org/Graphics/SVG/1.1/DTD/svg11.dtd">
<svg version="1.1" id="Layer_1" xmlns="http://www.w3.org/2000/svg" xmlns:xlink="http://www.w3.org/1999/xlink" x="0px" y="0px"
	 width="92px" height="68px" viewBox="0 0 92 68" enable-background="new 0 0 92 68" xml:space="preserve">
<g>
	<g>
		<path fill="#FF7F29" d="M17.823,48.029c-0.549,2.167-1.548,4.672-3.426,6.426c2.366,0.384,4.742,0.706,7.123,0.989
			c7.911,0.924,15.897,1.312,23.805,0.826c3.95-0.25,7.881-0.727,11.718-1.555c3.831-0.831,7.582-2.016,11.021-3.756
			c3.433-1.734,6.541-4.059,8.871-7.015c2.344-2.941,3.842-6.501,4.448-10.26c0.234-1.889,0.495-3.814,0.338-5.649
			c-0.114-1.849-0.582-3.626-1.368-5.241c-0.397-0.806-0.873-1.574-1.441-2.281c-0.271-0.363-0.58-0.699-0.891-1.033
			c-0.147-0.173-0.323-0.325-0.487-0.485l-0.407-0.39c-0.829-0.735-1.736-1.399-2.691-2.009c-0.174-0.025-1.481,0.269-2.79,0.862
			c-1.324,0.589-2.649,1.456-3.104,2.219c0,0-0.741-0.35-1.955-0.838c-1.212-0.489-2.92-1.101-4.74-1.696
			c-1.89-0.612-3.781-1.225-5.199-1.684c-1.503-0.512-2.506-0.853-2.506-0.853c1.665-2.752,4.689-4.583,8.928-4.471
			c-1.76-1.133-3.023-2.58-3.724-4.125c-0.707-1.544-0.836-3.178-0.491-4.671c0,0,0.879,0.299,2.198,0.748
			c1.42,0.46,3.313,1.073,5.206,1.687c1.961,0.641,4.001,1.368,5.557,1.994c1.556,0.624,2.617,1.122,2.617,1.123
			c-0.229,0.905,0.289,2.66,0.752,4.209c0.476,1.562,0.881,2.917,0.922,2.975c1.074,0.689,2.113,1.456,3.086,2.323l0.514,0.491
			c0.199,0.187,0.394,0.377,0.576,0.584c0.378,0.397,0.738,0.813,1.072,1.255c0.681,0.869,1.276,1.817,1.753,2.82
			c0.974,2.002,1.506,4.195,1.634,6.358c0.162,2.183-0.116,4.271-0.394,6.358c-0.681,4.173-2.4,8.262-5.081,11.604
			c-2.663,3.362-6.158,5.938-9.886,7.814c-3.741,1.885-7.722,3.128-11.736,3.998c-4.021,0.865-8.09,1.354-12.158,1.611
			c-8.14,0.498-16.274,0.097-24.32-0.842c-2.407-0.286-4.809-0.612-7.202-0.999c1.245,2.264,1.662,5.089,1.449,7.141
			C12.205,60.539,8.066,56.726,3,53.737C8.869,53.422,13.772,50.898,17.823,48.029z"/>
	</g>
</g>
</svg>
