<?xml version="1.0" encoding="utf-8"?>
<!-- Generator: Adobe Illustrator 16.2.0, SVG Export Plug-In . SVG Version: 6.00 Build 0)  -->
<!DOCTYPE svg PUBLIC "-//W3C//DTD SVG 1.1//EN" "http://www.w3.org/Graphics/SVG/1.1/DTD/svg11.dtd">
<svg version="1.1" xmlns="http://www.w3.org/2000/svg" xmlns:xlink="http://www.w3.org/1999/xlink" x="0px" y="0px" width="25px"
	 height="65px" viewBox="0 0 25 65" enable-background="new 0 0 25 65" xml:space="preserve">
<g id="Layer_1" display="none">
	
		<image display="inline" overflow="visible" width="203" height="199" xlink:href="../../../../../../private/var/folders/5m/92t23b4s4lg623v4pwjgtst40000gn/T/com.skitch.skitch/Screenshot_1_2_13_9_18_AM.png"  transform="matrix(0.9999 0 0 0.9999 323.3721 180.5127)">
	</image>
</g>
<g id="Layer_2">
	<g>
		<g>
			<path fill="#FF7F29" d="M3.519,59.672c1.748-1.45,4.074-2.782,6.632-3.343C9.183,55.54,8.232,54.717,7.334,53.8
				c-0.905-0.902-1.764-1.896-2.503-3.07l-0.479-0.84c-0.147-0.279-0.23-0.543-0.349-0.816l-0.656-1.626
				c-0.104-0.272-0.226-0.54-0.316-0.816l-0.229-0.842l-0.456-1.685c-0.177-0.557-0.241-1.134-0.334-1.706l-0.266-1.717
				c-0.156-1.146-0.149-2.304-0.228-3.455c-0.063-4.613,0.765-9.195,2.311-13.509c0.206-0.63,0.532-1.282,0.798-1.92
				c0.329-0.594,0.643-1.205,0.99-1.783c0.039-0.173-0.214-1.592-0.497-3.138c-0.146-0.77-0.319-1.586-0.527-2.298
				c-0.203-0.692-0.445-1.281-0.751-1.607c0,0,0.177-0.222,0.486-0.612c0.308-0.4,0.76-0.922,1.302-1.556
				c1.084-1.269,2.561-2.861,4.078-4.372c1.514-1.518,3.065-2.963,4.259-4.029c1.192-1.067,2.026-1.76,2.084-1.807
				c1.447,2.913,1.489,6.383-0.629,10.084c3.652-2.056,7.494-1.444,9.596,0.771c0.11-0.106-2.773,2.331-5.351,4.934
				c-1.3,1.294-2.527,2.62-3.378,3.619c-0.427,0.5-0.79,0.915-1.01,1.207c-0.231,0.291-0.363,0.457-0.363,0.457
				c-0.81-0.477-2.438-0.602-3.919-0.499c-1.471,0.091-2.757,0.431-2.824,0.465c-0.293,0.507-0.565,1.02-0.843,1.529
				c-0.211,0.531-0.468,1.007-0.653,1.578c-1.43,3.988-2.192,8.23-2.133,12.444c0.077,1.047,0.063,2.107,0.207,3.145l0.242,1.552
				c0.083,0.517,0.137,1.041,0.299,1.537l0.409,1.509l0.203,0.755c0.08,0.247,0.19,0.482,0.284,0.724l0.581,1.442
				c0.1,0.233,0.185,0.499,0.297,0.705l0.342,0.594c1.089,1.746,2.851,3.343,4.617,4.808c0.082-2.544,1.545-5.011,2.885-6.542
				c-0.247,2.198,0.193,4.684,1.145,7.119c0.966,2.435,2.452,4.847,4.463,6.991c-2.857-0.674-5.655-1.021-8.464-1.214
				C9.247,60.091,6.442,60.045,3.519,59.672z"/>
		</g>
	</g>
</g>
</svg>
